<?xml version="1.0" encoding="utf-8"?>
<!-- Svg Vector Icons : http://www.onlinewebfonts.com/icon -->
<!DOCTYPE svg PUBLIC "-//W3C//DTD SVG 1.1//EN" "http://www.w3.org/Graphics/SVG/1.1/DTD/svg11.dtd">
<svg version="1.1" xmlns="http://www.w3.org/2000/svg" xmlns:xlink="http://www.w3.org/1999/xlink" x="0px" y="0px" viewBox="0 0 256 256" enable-background="new 0 0 256 256" xml:space="preserve">
<metadata> Svg Vector Icons : http://www.onlinewebfonts.com/icon </metadata>
<g><g><g><path fill="#000000" d="M150.2,54c-3.5,1.1-6.6,3.6-8,6.3c-0.3,0.6-12,29.4-26,64.2c-27.4,67.9-26.7,65.7-24.7,70.4c3.9,9.1,16.3,10.2,21.7,2c0.4-0.6,12.3-29.8,26.4-64.6c27.5-68,26.9-66.2,25-70.7c-1.1-2.5-3.5-5.1-5.9-6.4C156.3,53.8,152.2,53.3,150.2,54z"/><path fill="#000000" d="M64.3,72.2c-3,1.4-52,50.2-53.3,53.1c-1.5,3.2-1.4,7.1,0.3,10.4c1.8,3.6,49,50.7,52.5,52.5c3.4,1.7,8.7,1.4,11.9-0.7c3.3-2.2,5.1-5.2,5.3-9.3c0.4-6.1,0.8-5.6-21.2-27.8l-20.2-20.2l19.7-19.7C72,98,79.4,90.2,80.1,88.7c2.8-5.7,0.4-13-5.3-16C71.3,71,67.4,70.8,64.3,72.2z"/><path fill="#000000" d="M181.4,72.7c-5.2,2.7-7.8,8.3-6.4,14c0.6,2.5,1.8,3.8,20.8,22.9c11.1,11.2,20.2,20.5,20.2,20.8c0,0.3-8.7,9.3-19.5,20c-10.8,10.8-19.9,20.4-20.6,21.6c-2.4,4.4-1.2,10.7,2.7,14.4c3.2,3,8.8,4,13,2.3c1.3-0.6,9.9-8.8,27.5-26.3c22.8-22.8,25.6-25.7,26.3-28.1c1-2.9,0.8-6.3-0.6-9.2c-0.4-0.9-12.3-13.2-26.3-27.1c-21.6-21.6-25.8-25.5-27.6-26C187.3,70.9,184.6,71.2,181.4,72.7z"/></g></g></g>
</svg>